<mxfile host="app.diagrams.net" agent="Mozilla/5.0 (Windows NT 10.0; Win64; x64) AppleWebKit/537.36 (KHTML, like Gecko) Chrome/129.0.0.0 Safari/537.36" version="24.7.16">
  <diagram name="Page-1" id="rs0zecmKJqH8SWE7M-5S">
    <mxGraphModel dx="2074" dy="1132" grid="1" gridSize="10" guides="1" tooltips="1" connect="1" arrows="1" fold="1" page="1" pageScale="1" pageWidth="1100" pageHeight="850" math="0" shadow="0">
      <root>
        <mxCell id="0" />
        <mxCell id="1" parent="0" />
        <mxCell id="S9GCXrdml8dpz5QGTyyT-1" value="Customer" style="swimlane;fontStyle=0;childLayout=stackLayout;horizontal=1;startSize=26;fillColor=none;horizontalStack=0;resizeParent=1;resizeParentMax=0;resizeLast=0;collapsible=1;marginBottom=0;whiteSpace=wrap;html=1;swimlaneLine=1;" vertex="1" parent="1">
          <mxGeometry x="460" y="10" width="140" height="290" as="geometry" />
        </mxCell>
        <mxCell id="S9GCXrdml8dpz5QGTyyT-2" value="_first : str" style="text;strokeColor=none;fillColor=none;align=left;verticalAlign=top;spacingLeft=4;spacingRight=4;overflow=hidden;rotatable=0;points=[[0,0.5],[1,0.5]];portConstraint=eastwest;whiteSpace=wrap;html=1;" vertex="1" parent="S9GCXrdml8dpz5QGTyyT-1">
          <mxGeometry y="26" width="140" height="26" as="geometry" />
        </mxCell>
        <mxCell id="S9GCXrdml8dpz5QGTyyT-3" value="_last : str" style="text;strokeColor=none;fillColor=none;align=left;verticalAlign=top;spacingLeft=4;spacingRight=4;overflow=hidden;rotatable=0;points=[[0,0.5],[1,0.5]];portConstraint=eastwest;whiteSpace=wrap;html=1;" vertex="1" parent="S9GCXrdml8dpz5QGTyyT-1">
          <mxGeometry y="52" width="140" height="26" as="geometry" />
        </mxCell>
        <mxCell id="S9GCXrdml8dpz5QGTyyT-8" value="" style="endArrow=none;html=1;rounded=0;" edge="1" parent="S9GCXrdml8dpz5QGTyyT-1">
          <mxGeometry width="50" height="50" relative="1" as="geometry">
            <mxPoint y="130" as="sourcePoint" />
            <mxPoint x="140" y="130" as="targetPoint" />
            <Array as="points">
              <mxPoint x="70" y="130" />
            </Array>
          </mxGeometry>
        </mxCell>
        <mxCell id="S9GCXrdml8dpz5QGTyyT-4" value="_phone : str&lt;div&gt;&lt;br&gt;&lt;/div&gt;&lt;div&gt;&lt;br&gt;&lt;/div&gt;&lt;div&gt;&lt;br&gt;&lt;/div&gt;&lt;div&gt;&lt;br&gt;&lt;/div&gt;&lt;div&gt;set_first()&lt;/div&gt;&lt;div&gt;set_last()&lt;br&gt;&lt;/div&gt;&lt;div&gt;set_phone()&lt;br&gt;&lt;/div&gt;&lt;div&gt;get_first()&lt;br&gt;&lt;/div&gt;&lt;div&gt;get_last()&lt;br&gt;&lt;/div&gt;&lt;div&gt;get_phone()&lt;br&gt;&lt;/div&gt;&lt;div&gt;__repr__()&lt;br&gt;&lt;/div&gt;" style="text;strokeColor=none;fillColor=none;align=left;verticalAlign=top;spacingLeft=4;spacingRight=4;overflow=hidden;rotatable=0;points=[[0,0.5],[1,0.5]];portConstraint=eastwest;whiteSpace=wrap;html=1;" vertex="1" parent="S9GCXrdml8dpz5QGTyyT-1">
          <mxGeometry y="78" width="140" height="212" as="geometry" />
        </mxCell>
        <mxCell id="S9GCXrdml8dpz5QGTyyT-11" style="edgeStyle=orthogonalEdgeStyle;rounded=0;orthogonalLoop=1;jettySize=auto;html=1;strokeColor=#19FF40;" edge="1" parent="1" source="S9GCXrdml8dpz5QGTyyT-9">
          <mxGeometry relative="1" as="geometry">
            <mxPoint x="530" y="400" as="targetPoint" />
          </mxGeometry>
        </mxCell>
        <mxCell id="S9GCXrdml8dpz5QGTyyT-9" value="" style="ellipse;whiteSpace=wrap;html=1;aspect=fixed;fillColor=#30FF83;gradientColor=default;" vertex="1" parent="1">
          <mxGeometry x="520" y="310" width="20" height="20" as="geometry" />
        </mxCell>
        <mxCell id="S9GCXrdml8dpz5QGTyyT-12" value="Person" style="swimlane;fontStyle=0;childLayout=stackLayout;horizontal=1;startSize=26;fillColor=none;horizontalStack=0;resizeParent=1;resizeParentMax=0;resizeLast=0;collapsible=1;marginBottom=0;whiteSpace=wrap;html=1;swimlaneLine=1;" vertex="1" parent="1">
          <mxGeometry x="460" y="410" width="140" height="290" as="geometry" />
        </mxCell>
        <mxCell id="S9GCXrdml8dpz5QGTyyT-13" value="_email : str" style="text;strokeColor=none;fillColor=none;align=left;verticalAlign=top;spacingLeft=4;spacingRight=4;overflow=hidden;rotatable=0;points=[[0,0.5],[1,0.5]];portConstraint=eastwest;whiteSpace=wrap;html=1;" vertex="1" parent="S9GCXrdml8dpz5QGTyyT-12">
          <mxGeometry y="26" width="140" height="26" as="geometry" />
        </mxCell>
        <mxCell id="S9GCXrdml8dpz5QGTyyT-14" value="_state : str" style="text;strokeColor=none;fillColor=none;align=left;verticalAlign=top;spacingLeft=4;spacingRight=4;overflow=hidden;rotatable=0;points=[[0,0.5],[1,0.5]];portConstraint=eastwest;whiteSpace=wrap;html=1;" vertex="1" parent="S9GCXrdml8dpz5QGTyyT-12">
          <mxGeometry y="52" width="140" height="26" as="geometry" />
        </mxCell>
        <mxCell id="S9GCXrdml8dpz5QGTyyT-15" value="" style="endArrow=none;html=1;rounded=0;" edge="1" parent="S9GCXrdml8dpz5QGTyyT-12">
          <mxGeometry width="50" height="50" relative="1" as="geometry">
            <mxPoint y="130" as="sourcePoint" />
            <mxPoint x="140" y="130" as="targetPoint" />
            <Array as="points">
              <mxPoint x="70" y="130" />
            </Array>
          </mxGeometry>
        </mxCell>
        <mxCell id="S9GCXrdml8dpz5QGTyyT-16" value="&lt;div&gt;_address : str&lt;/div&gt;&lt;div&gt;&lt;br&gt;&lt;/div&gt;&lt;div&gt;&lt;br&gt;&lt;/div&gt;&lt;div&gt;&lt;br&gt;&lt;/div&gt;&lt;div&gt;set_email()&lt;/div&gt;&lt;div&gt;set_state()&lt;br&gt;&lt;/div&gt;&lt;div&gt;set_address()&lt;br&gt;&lt;/div&gt;&lt;div&gt;get_email()&lt;br&gt;&lt;/div&gt;&lt;div&gt;get_state()&lt;br&gt;&lt;/div&gt;&lt;div&gt;get_address()&lt;br&gt;&lt;/div&gt;&lt;div&gt;__repr__()&lt;br&gt;&lt;/div&gt;" style="text;strokeColor=none;fillColor=none;align=left;verticalAlign=top;spacingLeft=4;spacingRight=4;overflow=hidden;rotatable=0;points=[[0,0.5],[1,0.5]];portConstraint=eastwest;whiteSpace=wrap;html=1;" vertex="1" parent="S9GCXrdml8dpz5QGTyyT-12">
          <mxGeometry y="78" width="140" height="212" as="geometry" />
        </mxCell>
      </root>
    </mxGraphModel>
  </diagram>
</mxfile>
